<?xml version="1.0" encoding="UTF-8" standalone="no"?>
<!DOCTYPE svg PUBLIC "-//W3C//DTD SVG 1.1//EN" "http://www.w3.org/Graphics/SVG/1.1/DTD/svg11.dtd">
<svg width="100%" height="100%" viewBox="0 0 288 79" version="1.1" xmlns="http://www.w3.org/2000/svg" xmlns:xlink="http://www.w3.org/1999/xlink" xml:space="preserve" xmlns:serif="http://www.serif.com/" style="fill-rule:evenodd;clip-rule:evenodd;stroke-linejoin:round;stroke-miterlimit:2;">
    <g transform="matrix(0.9,0,0,0.9,0,0)">
        <path d="M75,11.111C75,4.979 70.021,0 63.889,0L11.111,0C4.979,0 0,4.979 0,11.111L0,75.889C0,82.021 4.979,87 11.111,87L63.889,87C70.021,87 75,82.021 75,75.889L75,11.111Z" style="fill:rgb(66,165,245);"/>
    </g>
    <g transform="matrix(1.1155,0,0,1.1155,13.322,-4.0792)">
        <path d="M8.989,32.325L20.418,43.754C21.704,45.04 21.704,47.126 20.418,48.412C19.774,49.056 18.932,49.377 18.088,49.377C17.245,49.377 16.402,49.055 15.759,48.412L8.989,41.642L8.989,56.707C8.989,58.526 7.514,60.001 5.695,60.001C3.875,60.001 2.4,58.526 2.4,56.707L2.4,21.296C2.4,19.477 3.875,18.002 5.695,18.002C7.514,18.002 8.989,19.477 8.989,21.296L8.989,32.326L8.989,32.325ZM33.776,46.082C33.776,46.082 33.776,46.083 33.776,46.084L33.776,56.706C33.776,58.525 32.301,60 30.482,60C28.663,60 27.188,58.525 27.188,56.706L27.188,47.447L15.759,36.018C14.472,34.732 14.472,32.646 15.759,31.36C17.045,30.074 19.131,30.074 20.417,31.36L27.187,38.13L27.187,21.294C27.187,19.475 28.662,18 30.482,18C32.301,18 33.776,19.475 33.776,21.294L33.776,46.081L33.776,46.082Z" style="fill:white;fill-rule:nonzero;"/>
    </g>
    <g transform="matrix(1.2421,0,0,1.2421,86.011,7.0948)">
        <path d="M11.867,19.467C17.528,19.467 22.134,24.073 22.134,29.734L22.134,37.805C22.134,39.017 21.151,40.001 19.938,40.001C18.725,40.001 17.742,39.017 17.742,37.805L17.742,29.734C17.742,26.495 15.107,23.86 11.868,23.86C8.628,23.86 5.993,26.495 5.993,29.734L5.993,37.805C5.993,39.017 5.01,40.001 3.797,40.001C2.584,40.001 1.601,39.017 1.601,37.805L1.601,14.197C1.601,12.984 2.584,12.001 3.797,12.001C5.01,12.001 5.993,12.984 5.993,14.197L5.993,21.321C7.659,20.155 9.684,19.467 11.868,19.467L11.867,19.467ZM34.348,19.412C40.024,19.412 44.642,24.03 44.642,29.706C44.642,35.382 40.024,40 34.348,40C28.672,40 24.054,35.382 24.054,29.706C24.054,24.03 28.672,19.412 34.348,19.412ZM34.348,35.608C37.602,35.608 40.25,32.96 40.25,29.706C40.25,26.452 37.602,23.804 34.348,23.804C31.094,23.804 28.446,26.452 28.446,29.706C28.446,32.96 31.094,35.608 34.348,35.608ZM64.98,19.412C66.193,19.412 67.176,20.395 67.176,21.608L67.176,29.706C67.176,35.382 62.558,40 56.882,40C51.206,40 46.588,35.382 46.588,29.706L46.588,21.608C46.588,20.395 47.571,19.412 48.784,19.412C49.997,19.412 50.98,20.395 50.98,21.608L50.98,29.706C50.98,32.96 53.628,35.608 56.882,35.608C60.136,35.608 62.784,32.96 62.784,29.706L62.784,21.608C62.784,20.395 63.767,19.412 64.98,19.412ZM79.416,19.412C80.629,19.412 81.612,20.395 81.612,21.608C81.612,22.821 80.629,23.804 79.416,23.804C76.162,23.804 73.514,26.452 73.514,29.706L73.514,37.804C73.514,39.017 72.531,40 71.318,40C70.105,40 69.122,39.017 69.122,37.804L69.122,21.608C69.122,20.395 70.105,19.412 71.318,19.412C72.425,19.412 73.338,20.232 73.49,21.297C75.167,20.111 77.211,19.412 79.416,19.412ZM104.764,19.412C105.977,19.412 106.96,20.395 106.96,21.608C106.96,22.821 105.977,23.804 104.764,23.804C101.51,23.804 98.862,26.452 98.862,29.706L98.862,37.804C98.862,39.017 97.879,40 96.666,40C95.453,40 94.47,39.017 94.47,37.804L94.47,21.608C94.47,20.395 95.453,19.412 96.666,19.412C97.773,19.412 98.686,20.232 98.838,21.297C100.515,20.111 102.559,19.412 104.764,19.412ZM125.276,19.412C126.489,19.412 127.472,20.395 127.472,21.608L127.472,37.804C127.472,39.017 126.489,40 125.276,40C124.169,40 123.256,39.18 123.104,38.115C121.427,39.301 119.383,40 117.178,40C111.502,40 106.884,35.382 106.884,29.706C106.884,24.03 111.502,19.412 117.178,19.412C119.383,19.412 121.427,20.111 123.104,21.297C123.256,20.232 124.169,19.412 125.276,19.412ZM117.178,35.608C120.432,35.608 123.08,32.96 123.08,29.706C123.08,26.452 120.432,23.804 117.178,23.804C113.924,23.804 111.276,26.452 111.276,29.706C111.276,32.96 113.924,35.608 117.178,35.608ZM139.877,35.608C141.09,35.608 142.073,36.591 142.073,37.804C142.073,39.017 141.09,40 139.877,40C134.11,40 129.418,35.308 129.418,29.541L129.418,14.196C129.418,12.983 130.401,12 131.614,12C132.827,12 133.81,12.983 133.81,14.196L133.81,19.418L139.877,19.418C141.089,19.418 142.073,20.401 142.073,21.614C142.073,22.827 141.089,23.81 139.877,23.81L133.81,23.81L133.81,29.541C133.81,32.886 136.532,35.608 139.877,35.608L139.877,35.608ZM152.326,19.412C158.002,19.412 162.62,24.03 162.62,29.706C162.62,30.919 161.637,31.902 160.424,31.902L146.848,31.902C147.721,34.072 149.848,35.608 152.326,35.608C153.903,35.608 155.385,34.994 156.5,33.879C157.357,33.022 158.748,33.022 159.605,33.879C160.463,34.737 160.463,36.128 159.605,36.985C157.661,38.929 155.076,40 152.326,40C146.65,40 142.032,35.382 142.032,29.706C142.032,24.03 146.65,19.412 152.326,19.412L152.326,19.412ZM146.848,27.51L157.805,27.51C156.932,25.34 154.805,23.804 152.326,23.804C149.847,23.804 147.721,25.34 146.848,27.51L146.848,27.51Z" style="fill:rgb(66,165,245);fill-rule:nonzero;"/>
    </g>
</svg>
