<?xml version="1.0" encoding="UTF-8"?>
<svg className="css-1j8o68f" viewBox="0 0 288 78.3" xmlns="http://www.w3.org/2000/svg">
<g transform="scale(.9)" fill="#42a5f5" featurekey="symbolContainer">
<rect width="75" height="87" rx="10" ry="10" xmlns="http://www.w3.org/2000/svg"/>
</g>
<g transform="matrix(1.1112 0 0 1.1112 12.667 -3.4364)" fill="#fff" featurekey="monogramFeature-0">
<path d="m31.479 17.499c0.67626-0.43412 3.7459 16.766 2.8561 16.6-3.8573-0.034336-7.6926-0.19447-11.497-0.47602 0.39979 2.9008 0.85674 5.7881 1.3697 8.6556 0.9648 5.3554 2.1164 10.657 3.4957 15.781 0.3839 0.80208-17.009 2.461-16.778 1.4783 0.4214-5.8371 1.118-11.538 2.0046-17.185 0.50719-3.1982 1.083-6.3744 1.7224-9.5316-3.652-0.44239-7.2708-0.99342-10.849-1.6576-1.0843-0.22184-1.0582-5.3357-0.0088476-5.7119 9.5856-1.8698 18.858-4.5488 27.683-7.953z"/>
</g>
<g transform="matrix(1.5052 0 0 1.5052 85.592 -.062659)" fill="#42a5f5" featurekey="nameFeature-0">
<path d="m12.059 35.608c1.2128 0 2.1961 0.98332 2.1961 2.1961s-0.98328 2.196-2.196 2.196c-5.7668 0-10.459-4.692-10.459-10.459v-15.345c0-1.2128 0.98328-2.196 2.196-2.196s2.196 0.98328 2.196 2.196v5.2217h6.0666c1.2128 0 2.196 0.98328 2.196 2.196s-0.98328 2.196-2.196 2.196h-6.0666v5.7312c0 3.3452 2.7215 6.0668 6.0668 6.0668zm20.547-16.196c1.2128 0 2.196 0.98328 2.196 2.196v16.196c0 1.2128-0.98328 2.196-2.196 2.196-1.1071 0-2.0201-0.81968-2.1716-1.885-1.677 1.1856-3.721 1.885-5.9264 1.885-5.6764 0-10.294-4.6176-10.294-10.294s4.6176-10.294 10.294-10.294c2.2054 0 4.2492 0.69944 5.9264 1.885 0.15152-1.0654 1.0645-1.885 2.1716-1.885zm-8.098 16.196c3.2543 0 5.902-2.6476 5.902-5.902s-2.6476-5.902-5.902-5.902-5.902 2.6476-5.902 5.902 2.6476 5.902 5.902 5.902zm26.183-8.098c3.4434 0 6.2452 2.8016 6.2452 6.2452s-2.8016 6.2452-6.2452 6.2452h-8.098c-1.2128 0-2.196-0.98328-2.196-2.196s0.98328-2.196 2.196-2.196h8.098c1.0217 0 1.8529-0.8312 1.8529-1.8529s-0.8312-1.8529-1.8529-1.8529h-8.098c-3.4434 0-6.2452-2.8016-6.2452-6.2452s2.8016-6.2452 6.2452-6.2452h8.098c1.2128 0 2.196 0.98328 2.196 2.196s-0.98328 2.196-2.196 2.196h-8.098c-1.0217 0-1.8529 0.8312-1.8529 1.8529s0.8312 1.8529 1.8529 1.8529h8.098zm21.163 2.223 6.518 6.518c0.85784 0.85756 0.85784 2.248 0 3.1056-0.4288 0.4288-0.99072 0.64316-1.5529 0.64316s-1.1241-0.21438-1.5529-0.64316l-6.5176-6.5176-6.5176 6.5176c-0.42028 0.42-0.98192 0.64316-1.5534 0.64316-0.28301 0-0.56824-0.054608-0.84-0.16715-0.82052-0.33984-1.3555-1.1406-1.3555-2.0289v-23.606c0-1.2128 0.98328-2.196 2.196-2.196s2.196 0.98328 2.196 2.196v18.305l12.392-12.392c0.85756-0.85756 2.248-0.85756 3.1056 0 0.85784 0.85756 0.85784 2.248 0 3.1056zm17.376-10.321c5.6764 0 10.294 4.6176 10.294 10.294 0 1.2128-0.98328 2.196-2.196 2.196h-13.576c0.87292 2.17 2.9995 3.7059 5.4784 3.7059 1.5765 0 3.0586-0.6138 4.1732-1.7286 0.85784-0.85756 2.248-0.85732 3.1058 0 0.85784 0.85784 0.85756 2.2482 0 3.1058-1.9446 1.9443-4.5296 3.0149-7.2792 3.0149-5.6764 0-10.294-4.6176-10.294-10.294s4.6176-10.294 10.294-10.294zm-5.4784 8.098h10.957c-0.87292-2.17-2.9995-3.7059-5.4784-3.7059s-4.6056 1.5359-5.4784 3.7059zm28.012-8.098c1.2128 0 2.196 0.98328 2.196 2.196s-0.98328 2.196-2.196 2.196c-3.2543 0-5.902 2.6476-5.902 5.902v8.098c0 1.2128-0.98328 2.196-2.196 2.196s-2.196-0.98328-2.196-2.196v-16.196c0-1.2128 0.98328-2.196 2.196-2.196 1.1071 0 2.0201 0.81996 2.1716 1.885 1.677-1.1856 3.721-1.885 5.9264-1.885zm12.414 0c5.6764 0 10.294 4.6176 10.294 10.294s-4.6176 10.294-10.294 10.294-10.294-4.6176-10.294-10.294 4.6176-10.294 10.294-10.294zm0 16.196c3.2543 0 5.902-2.6476 5.902-5.902s-2.6476-5.902-5.902-5.902-5.902 2.6476-5.902 5.902 2.6476 5.902 5.902 5.902z"/>
</g>
</svg>
