<?xml version="1.0" encoding="UTF-8" standalone="no"?>
<!DOCTYPE svg PUBLIC "-//W3C//DTD SVG 1.1//EN" "http://www.w3.org/Graphics/SVG/1.1/DTD/svg11.dtd">
<svg width="100%" height="100%" viewBox="0 0 68 78" version="1.1" xmlns="http://www.w3.org/2000/svg" xmlns:xlink="http://www.w3.org/1999/xlink" xml:space="preserve" xmlns:serif="http://www.serif.com/" style="fill-rule:evenodd;clip-rule:evenodd;stroke-linejoin:round;stroke-miterlimit:2;">
    <g transform="matrix(0.9,0,0,0.9,0,0)">
        <path d="M75,11.111C75,4.979 70.021,0 63.889,0L11.111,0C4.979,0 0,4.979 0,11.111L0,75.889C0,82.021 4.979,87 11.111,87L63.889,87C70.021,87 75,82.021 75,75.889L75,11.111Z" style="fill:rgb(66,165,245);"/>
    </g>
    <g transform="matrix(1.1155,0,0,1.1155,13.322,-4.0792)">
        <path d="M8.989,32.325L20.418,43.754C21.704,45.04 21.704,47.126 20.418,48.412C19.774,49.056 18.932,49.377 18.088,49.377C17.245,49.377 16.402,49.055 15.759,48.412L8.989,41.642L8.989,56.707C8.989,58.526 7.514,60.001 5.695,60.001C3.875,60.001 2.4,58.526 2.4,56.707L2.4,21.296C2.4,19.477 3.875,18.002 5.695,18.002C7.514,18.002 8.989,19.477 8.989,21.296L8.989,32.326L8.989,32.325ZM33.776,46.082C33.776,46.082 33.776,46.083 33.776,46.084L33.776,56.706C33.776,58.525 32.301,60 30.482,60C28.663,60 27.188,58.525 27.188,56.706L27.188,47.447L15.759,36.018C14.472,34.732 14.472,32.646 15.759,31.36C17.045,30.074 19.131,30.074 20.417,31.36L27.187,38.13L27.187,21.294C27.187,19.475 28.662,18 30.482,18C32.301,18 33.776,19.475 33.776,21.294L33.776,46.081L33.776,46.082Z" style="fill:white;fill-rule:nonzero;"/>
    </g>
</svg>
